<mxfile host="app.diagrams.net" modified="2023-11-28T00:18:53.718Z" agent="Mozilla/5.0 (Windows NT 10.0; Win64; x64) AppleWebKit/537.36 (KHTML, like Gecko) Chrome/119.0.0.0 Safari/537.36 Edg/119.0.0.0" version="22.1.4" etag="LUxwOQJh5-Un7UuH5EN_" type="github">
  <diagram name="第 1 页" id="qUGAUmxLeG3MtmmjVj0U">
    <mxGraphModel>
      <root>
        <mxCell id="0" />
        <mxCell id="1" parent="0" />
      </root>
    </mxGraphModel>
  </diagram>
</mxfile>
